<svg xmlns="http://www.w3.org/2000/svg" xmlns:xlink="http://www.w3.org/1999/xlink" width="348" zoomAndPan="magnify" viewBox="0 0 261 195.750001" height="261" preserveAspectRatio="xMidYMid meet" version="1.0"><path fill="#0cc0df" d="M 30.953125 93.914062 C 30.953125 85.679688 35.457031 81.246094 42.917969 81.246094 C 49.355469 81.246094 53.296875 84.484375 54.492188 90.042969 L 52.769531 90.042969 C 51.714844 85.222656 48.546875 82.832031 42.917969 82.832031 C 36.230469 82.832031 32.710938 86.277344 32.710938 93.914062 C 32.710938 101.269531 35.984375 105 42.917969 105 C 48.335938 105 51.679688 102.710938 52.734375 97.785156 L 54.492188 97.785156 C 53.261719 103.523438 49.109375 106.582031 42.917969 106.582031 C 35.140625 106.582031 30.953125 101.832031 30.953125 93.914062 Z M 30.953125 93.914062 " fill-opacity="1" fill-rule="nonzero"/><path fill="#0cc0df" d="M 65.609375 86.523438 C 72.085938 86.523438 75.570312 90.289062 75.570312 96.554688 C 75.570312 103.097656 71.839844 106.582031 65.609375 106.582031 C 59.171875 106.582031 55.6875 102.816406 55.6875 96.554688 C 55.6875 90.007812 59.382812 86.523438 65.609375 86.523438 Z M 73.808594 96.554688 C 73.808594 91.027344 71.277344 88.285156 65.609375 88.285156 C 60.121094 88.285156 57.445312 90.816406 57.445312 96.554688 C 57.445312 102.078125 59.980469 104.824219 65.609375 104.824219 C 71.101562 104.824219 73.808594 102.289062 73.808594 96.554688 Z M 73.808594 96.554688 " fill-opacity="1" fill-rule="nonzero"/><path fill="#0cc0df" d="M 76.941406 96.554688 C 76.941406 90.007812 80.636719 86.523438 86.863281 86.523438 C 91.085938 86.523438 93.726562 88.109375 95.0625 90.960938 L 95.0625 81.597656 L 96.820312 81.597656 L 96.820312 106.230469 L 95.0625 106.230469 L 95.0625 102.148438 C 93.691406 105.070312 90.980469 106.582031 86.863281 106.582031 C 80.421875 106.582031 76.941406 102.816406 76.941406 96.554688 Z M 86.863281 104.824219 C 92.351562 104.824219 95.0625 102.289062 95.0625 96.554688 C 95.0625 91.03125 92.527344 88.285156 86.863281 88.285156 C 81.375 88.285156 78.699219 90.820312 78.699219 96.554688 C 78.699219 102.078125 81.234375 104.824219 86.863281 104.824219 Z M 86.863281 104.824219 " fill-opacity="1" fill-rule="nonzero"/><path fill="#0cc0df" d="M 98.367188 96.554688 C 98.367188 90.007812 102.0625 86.523438 108.292969 86.523438 C 114.519531 86.523438 118.214844 90.007812 118.214844 96.554688 L 100.128906 96.554688 C 100.128906 102.078125 102.660156 104.824219 108.292969 104.824219 C 113.078125 104.824219 115.753906 102.886719 116.351562 98.628906 L 118.109375 98.628906 C 117.371094 103.839844 113.816406 106.582031 108.292969 106.582031 C 101.851562 106.582031 98.367188 102.816406 98.367188 96.554688 Z M 116.386719 94.96875 C 115.894531 90.359375 113.253906 88.285156 108.292969 88.285156 C 103.332031 88.285156 100.691406 90.359375 100.199219 94.96875 Z M 116.386719 94.96875 " fill-opacity="1" fill-rule="nonzero"/><path fill="#ffffff" d="M 139.785156 81.597656 L 139.785156 86.171875 L 125.355469 86.171875 L 125.355469 91.453125 L 139.785156 91.453125 L 139.785156 96.027344 L 125.355469 96.027344 L 125.355469 106.230469 L 120.078125 106.230469 L 120.078125 81.597656 Z M 139.785156 81.597656 " fill-opacity="1" fill-rule="nonzero"/><path fill="#ffffff" d="M 141.753906 81.597656 L 146.679688 81.597656 L 146.679688 106.230469 L 141.753906 106.230469 Z M 141.753906 81.597656 " fill-opacity="1" fill-rule="nonzero"/><path fill="#ffffff" d="M 148.578125 97.433594 L 148.578125 86.875 L 153.507812 86.875 L 153.507812 97.433594 C 153.507812 100.144531 155.582031 101.832031 158.820312 101.832031 C 161.953125 101.832031 164.132812 100.285156 164.132812 97.433594 L 164.132812 86.875 L 169.058594 86.875 L 169.058594 106.230469 L 164.132812 106.230469 L 164.132812 104.050781 C 162.972656 105.703125 161 106.582031 157.765625 106.582031 C 152.414062 106.582031 148.578125 103.132812 148.578125 97.433594 Z M 148.578125 97.433594 " fill-opacity="1" fill-rule="nonzero"/><path fill="#ffffff" d="M 170.957031 96.554688 C 170.957031 90.007812 175.003906 86.523438 181.796875 86.523438 C 188.835938 86.523438 192.632812 90.289062 192.632812 96.554688 L 192.632812 97.292969 L 175.917969 97.292969 C 176.199219 100.144531 178.242188 101.832031 181.796875 101.832031 C 184.363281 101.832031 186.195312 100.988281 187.074219 99.296875 L 192.386719 99.296875 C 191.332031 104.050781 187.53125 106.582031 181.796875 106.582031 C 174.757812 106.582031 170.957031 102.816406 170.957031 96.554688 Z M 187.039062 93.703125 C 186.125 92.15625 184.363281 91.277344 181.796875 91.277344 C 179.296875 91.277344 177.46875 92.121094 176.554688 93.703125 Z M 187.039062 93.703125 " fill-opacity="1" fill-rule="nonzero"/><path fill="#ffffff" d="M 204.140625 91.277344 C 201.007812 91.277344 198.824219 92.824219 198.824219 95.675781 L 198.824219 106.230469 L 193.898438 106.230469 L 193.898438 86.875 L 198.824219 86.875 L 198.824219 89.058594 C 199.988281 87.40625 201.957031 86.523438 205.195312 86.523438 C 210.542969 86.523438 214.378906 89.972656 214.378906 95.675781 L 214.378906 106.230469 L 209.453125 106.230469 L 209.453125 95.675781 C 209.453125 92.964844 207.375 91.277344 204.140625 91.277344 Z M 204.140625 91.277344 " fill-opacity="1" fill-rule="nonzero"/><path fill="#ffffff" d="M 217.613281 99.371094 L 217.613281 91.101562 L 215.082031 91.101562 L 215.082031 86.878906 L 217.613281 86.878906 L 217.613281 81.597656 L 222.542969 81.597656 L 222.542969 86.878906 L 230 86.878906 L 230 91.101562 L 222.542969 91.101562 L 222.542969 99.230469 C 222.542969 101.128906 223.703125 101.65625 225.039062 101.65625 L 230 101.65625 L 230 106.230469 L 223.949219 106.230469 C 220.816406 106.230469 217.613281 104.859375 217.613281 99.371094 Z M 217.613281 99.371094 " fill-opacity="1" fill-rule="nonzero"/><path fill="#ffffff" d="M 162.640625 112.441406 L 160.890625 109.480469 L 161.910156 109.480469 L 163.132812 111.503906 L 164.328125 109.480469 L 165.34375 109.480469 L 163.597656 112.441406 L 163.597656 113.933594 L 162.640625 113.933594 Z M 162.640625 112.441406 " fill-opacity="1" fill-rule="nonzero"/><path fill="#ffffff" d="M 164.570312 112.183594 C 164.570312 111 165.300781 110.371094 166.527344 110.371094 C 167.800781 110.371094 168.488281 111.050781 168.488281 112.183594 C 168.488281 113.367188 167.757812 114 166.527344 114 C 165.257812 114 164.570312 113.316406 164.570312 112.183594 Z M 166.527344 113.140625 C 167.203125 113.140625 167.597656 112.808594 167.597656 112.183594 C 167.597656 111.585938 167.222656 111.230469 166.527344 111.230469 C 165.855469 111.230469 165.460938 111.5625 165.460938 112.183594 C 165.460938 112.78125 165.835938 113.140625 166.527344 113.140625 Z M 166.527344 113.140625 " fill-opacity="1" fill-rule="nonzero"/><path fill="#ffffff" d="M 168.742188 112.34375 L 168.742188 110.433594 L 169.632812 110.433594 L 169.632812 112.34375 C 169.632812 112.835938 170.007812 113.140625 170.59375 113.140625 C 171.160156 113.140625 171.554688 112.859375 171.554688 112.34375 L 171.554688 110.433594 L 172.445312 110.433594 L 172.445312 113.933594 L 171.554688 113.933594 L 171.554688 113.539062 C 171.34375 113.839844 170.988281 114 170.402344 114 C 169.4375 114 168.742188 113.375 168.742188 112.34375 Z M 168.742188 112.34375 " fill-opacity="1" fill-rule="nonzero"/><path fill="#ffffff" d="M 172.789062 110.433594 L 173.679688 110.433594 L 173.679688 111.039062 C 173.941406 110.605469 174.378906 110.433594 174.992188 110.433594 L 175.386719 110.433594 L 175.386719 111.199219 L 174.992188 111.199219 C 174.171875 111.199219 173.679688 111.71875 173.679688 112.269531 L 173.679688 113.933594 L 172.789062 113.933594 Z M 172.789062 110.433594 " fill-opacity="1" fill-rule="nonzero"/><path fill="#ffffff" d="M 178.273438 109.480469 L 179.675781 113.933594 L 178.65625 113.933594 L 177.257812 109.480469 Z M 178.273438 109.480469 " fill-opacity="1" fill-rule="nonzero"/><path fill="#0cc0df" d="M 181.074219 109.480469 L 182.09375 109.480469 L 180.691406 113.933594 L 179.675781 113.933594 Z M 181.074219 109.480469 " fill-opacity="1" fill-rule="nonzero"/><path fill="#ffffff" d="M 182.308594 110.433594 L 183.199219 110.433594 L 183.199219 113.933594 L 182.308594 113.933594 Z M 182.308594 110.433594 " fill-opacity="1" fill-rule="nonzero"/><path fill="#0cc0df" d="M 182.308594 109.480469 L 183.199219 109.480469 L 183.199219 110.054688 L 182.308594 110.054688 Z M 182.308594 109.480469 " fill-opacity="1" fill-rule="nonzero"/><path fill="#ffffff" d="M 183.414062 112.746094 L 184.351562 112.746094 C 184.410156 113.089844 184.734375 113.242188 185.234375 113.242188 C 185.707031 113.242188 186.023438 113.171875 186.023438 112.929688 C 186.023438 112.304688 183.582031 112.917969 183.582031 111.433594 C 183.582031 110.753906 184.269531 110.378906 185.128906 110.378906 C 186.101562 110.378906 186.769531 110.867188 186.882812 111.632812 L 185.96875 111.632812 C 185.890625 111.28125 185.660156 111.121094 185.148438 111.121094 C 184.769531 111.121094 184.496094 111.273438 184.496094 111.472656 C 184.496094 112.082031 186.992188 111.503906 186.992188 112.929688 C 186.992188 113.636719 186.191406 114 185.351562 114 C 184.230469 114 183.503906 113.585938 183.414062 112.746094 Z M 183.414062 112.746094 " fill-opacity="1" fill-rule="nonzero"/><path fill="#ffffff" d="M 187.273438 110.433594 L 188.164062 110.433594 L 188.164062 113.933594 L 187.273438 113.933594 Z M 187.273438 110.433594 " fill-opacity="1" fill-rule="nonzero"/><path fill="#0cc0df" d="M 187.273438 109.480469 L 188.164062 109.480469 L 188.164062 110.054688 L 187.273438 110.054688 Z M 187.273438 109.480469 " fill-opacity="1" fill-rule="nonzero"/><path fill="#ffffff" d="M 188.441406 112.183594 C 188.441406 111 189.175781 110.371094 190.402344 110.371094 C 191.675781 110.371094 192.363281 111.050781 192.363281 112.183594 C 192.363281 113.367188 191.628906 114 190.402344 114 C 189.128906 114 188.441406 113.316406 188.441406 112.183594 Z M 190.402344 113.140625 C 191.078125 113.140625 191.472656 112.808594 191.472656 112.183594 C 191.472656 111.585938 191.097656 111.230469 190.402344 111.230469 C 189.726562 111.230469 189.332031 111.5625 189.332031 112.183594 C 189.332031 112.78125 189.707031 113.140625 190.402344 113.140625 Z M 190.402344 113.140625 " fill-opacity="1" fill-rule="nonzero"/><path fill="#ffffff" d="M 194.472656 111.230469 C 193.90625 111.230469 193.511719 111.511719 193.511719 112.027344 L 193.511719 113.933594 L 192.621094 113.933594 L 192.621094 110.433594 L 193.511719 110.433594 L 193.511719 110.828125 C 193.722656 110.53125 194.078125 110.371094 194.664062 110.371094 C 195.632812 110.371094 196.324219 110.996094 196.324219 112.027344 L 196.324219 113.933594 L 195.433594 113.933594 L 195.433594 112.027344 C 195.433594 111.535156 195.058594 111.230469 194.472656 111.230469 Z M 194.472656 111.230469 " fill-opacity="1" fill-rule="nonzero"/><path fill="#ffffff" d="M 197.261719 114.417969 L 197.109375 114.273438 C 197.214844 114.1875 197.304688 114.09375 197.34375 113.972656 C 197.292969 113.984375 197.234375 114 197.179688 114 C 196.898438 114 196.667969 113.769531 196.667969 113.488281 C 196.667969 113.214844 196.898438 112.980469 197.179688 112.980469 C 197.453125 112.980469 197.6875 113.214844 197.6875 113.515625 C 197.6875 113.820312 197.554688 114.171875 197.261719 114.417969 Z M 197.261719 114.417969 " fill-opacity="1" fill-rule="nonzero"/><path fill="#ffffff" d="M 199.558594 111.707031 C 199.558594 110.21875 200.441406 109.417969 201.914062 109.417969 C 203.445312 109.417969 204.265625 110.277344 204.265625 111.707031 C 204.265625 113.195312 203.382812 114 201.914062 114 C 200.386719 114 199.558594 113.140625 199.558594 111.707031 Z M 201.914062 113.042969 C 202.890625 113.042969 203.3125 112.695312 203.3125 111.707031 C 203.3125 110.695312 202.847656 110.371094 201.914062 110.371094 C 200.933594 110.371094 200.511719 110.722656 200.511719 111.707031 C 200.511719 112.71875 200.976562 113.042969 201.914062 113.042969 Z M 201.914062 113.042969 " fill-opacity="1" fill-rule="nonzero"/><path fill="#ffffff" d="M 204.554688 112.34375 L 204.554688 110.433594 L 205.445312 110.433594 L 205.445312 112.34375 C 205.445312 112.835938 205.820312 113.140625 206.40625 113.140625 C 206.972656 113.140625 207.367188 112.859375 207.367188 112.34375 L 207.367188 110.433594 L 208.257812 110.433594 L 208.257812 113.933594 L 207.367188 113.933594 L 207.367188 113.539062 C 207.15625 113.839844 206.800781 114 206.214844 114 C 205.246094 114 204.554688 113.375 204.554688 112.34375 Z M 204.554688 112.34375 " fill-opacity="1" fill-rule="nonzero"/><path fill="#ffffff" d="M 208.601562 110.433594 L 209.492188 110.433594 L 209.492188 111.039062 C 209.75 110.605469 210.191406 110.433594 210.800781 110.433594 L 211.195312 110.433594 L 211.195312 111.199219 L 210.800781 111.199219 C 209.980469 111.199219 209.492188 111.71875 209.492188 112.269531 L 209.492188 113.933594 L 208.601562 113.933594 Z M 208.601562 110.433594 " fill-opacity="1" fill-rule="nonzero"/><path fill="#ffffff" d="M 213.066406 111.707031 C 213.066406 110.21875 213.949219 109.417969 215.421875 109.417969 C 216.6875 109.417969 217.464844 110.003906 217.699219 111.007812 L 216.71875 111.007812 C 216.535156 110.484375 216.101562 110.371094 215.421875 110.371094 C 214.441406 110.371094 214.019531 110.722656 214.019531 111.707031 C 214.019531 112.71875 214.484375 113.042969 215.421875 113.042969 C 216.132812 113.042969 216.546875 112.921875 216.726562 112.40625 L 217.699219 112.40625 C 217.457031 113.445312 216.640625 114 215.421875 114 C 213.894531 114 213.066406 113.140625 213.066406 111.707031 Z M 213.066406 111.707031 " fill-opacity="1" fill-rule="nonzero"/><path fill="#ffffff" d="M 217.914062 112.183594 C 217.914062 111 218.648438 110.371094 219.875 110.371094 C 221.148438 110.371094 221.835938 111.050781 221.835938 112.183594 C 221.835938 113.367188 221.101562 114 219.875 114 C 218.601562 114 217.914062 113.316406 217.914062 112.183594 Z M 219.875 113.140625 C 220.550781 113.140625 220.945312 112.808594 220.945312 112.183594 C 220.945312 111.585938 220.566406 111.230469 219.875 111.230469 C 219.199219 111.230469 218.804688 111.5625 218.804688 112.183594 C 218.804688 112.78125 219.179688 113.140625 219.875 113.140625 Z M 219.875 113.140625 " fill-opacity="1" fill-rule="nonzero"/><path fill="#ffffff" d="M 222.082031 112.183594 C 222.082031 111 222.6875 110.371094 223.914062 110.371094 C 224.546875 110.371094 224.90625 110.535156 225.109375 110.84375 L 225.109375 109.480469 L 226.003906 109.480469 L 226.003906 113.933594 L 225.109375 113.933594 L 225.109375 113.519531 C 224.902344 113.832031 224.539062 114 223.914062 114 C 222.640625 114 222.082031 113.316406 222.082031 112.183594 Z M 224.042969 113.140625 C 224.71875 113.140625 225.109375 112.808594 225.109375 112.183594 C 225.109375 111.585938 224.734375 111.230469 224.042969 111.230469 C 223.367188 111.230469 222.972656 111.5625 222.972656 112.183594 C 222.972656 112.78125 223.347656 113.140625 224.042969 113.140625 Z M 224.042969 113.140625 " fill-opacity="1" fill-rule="nonzero"/><path fill="#ffffff" d="M 226.28125 112.183594 C 226.28125 111 227.015625 110.371094 228.242188 110.371094 C 229.515625 110.371094 230.203125 111.050781 230.203125 112.183594 L 230.203125 112.320312 L 227.179688 112.320312 C 227.230469 112.835938 227.597656 113.140625 228.242188 113.140625 C 228.707031 113.140625 229.039062 112.988281 229.195312 112.679688 L 230.15625 112.679688 C 229.964844 113.539062 229.277344 114 228.242188 114 C 226.96875 114 226.28125 113.316406 226.28125 112.183594 Z M 229.191406 111.667969 C 229.023438 111.390625 228.707031 111.230469 228.242188 111.230469 C 227.789062 111.230469 227.460938 111.382812 227.292969 111.667969 Z M 229.191406 111.667969 " fill-opacity="1" fill-rule="nonzero"/></svg>